{"accessors" : [{"bufferView" : 0, "byteOffset" : 0, "componentType" : 5123, "count" : 276, "type" : "SCALAR", "max" : [275], "min" : [0]}, {"bufferView" : 1, "byteOffset" : 0, "componentType" : 5126, "count" : 276, "type" : "VEC3", "max" : [0.15398624539375305, 0.19588811695575714, 3.57314133644104], "min" : [-0.19759593904018402, -0.19802342355251312, -0.023760326206684113], "name" : "POSITION"}, {"bufferView" : 1, "byteOffset" : 12, "componentType" : 5126, "count" : 276, "type" : "VEC3", "max" : [0.9999485015869141, 0.865767776966095, 1.0000044107437134], "min" : [-0.9999485015869141, -0.8663552403450012, -1.0000044107437134], "name" : "NORMAL"}, {"bufferView" : 0, "byteOffset" : 552, "componentType" : 5123, "count" : 2304, "type" : "SCALAR", "max" : [2303], "min" : [0]}, {"bufferView" : 2, "byteOffset" : 0, "componentType" : 5126, "count" : 2304, "type" : "VEC3", "max" : [1.1371914148330688, 1.1535186767578125, 3.8084428310394287], "min" : [-1.267573356628418, -1.2861648797988892, 2.4570562839508057], "name" : "POSITION"}, {"bufferView" : 2, "byteOffset" : 12, "componentType" : 5126, "count" : 2304, "type" : "VEC3", "max" : [0.9925196766853333, 0.9839498996734619, 0.9797616600990295], "min" : [-0.9958222508430481, -0.9799933433532715, -0.979117214679718], "name" : "NORMAL"}, {"bufferView" : 0, "byteOffset" : 5160, "componentType" : 5123, "count" : 1728, "type" : "SCALAR", "max" : [1727], "min" : [0]}, {"bufferView" : 3, "byteOffset" : 0, "componentType" : 5126, "count" : 1728, "type" : "VEC3", "max" : [1.6093372106552124, 0.630589485168457, 3.9047691822052], "min" : [-0.9935946464538574, -1.3605289459228516, 2.402254819869995], "name" : "POSITION"}, {"bufferView" : 3, "byteOffset" : 12, "componentType" : 5126, "count" : 1728, "type" : "VEC3", "max" : [0.9394501447677612, 0.986728310585022, 0.9772475361824036], "min" : [-0.9778292179107666, -0.9821707606315613, -0.9768859148025513], "name" : "NORMAL"}, {"bufferView" : 0, "byteOffset" : 8616, "componentType" : 5123, "count" : 180, "type" : "SCALAR", "max" : [179], "min" : [0]}, {"bufferView" : 4, "byteOffset" : 0, "componentType" : 5126, "count" : 180, "type" : "VEC3", "max" : [0.2645888924598694, -0.016641834750771523, 3.6251654624938965], "min" : [-0.10417784005403519, -0.3204247057437897, 3.3563692569732666], "name" : "POSITION"}, {"bufferView" : 4, "byteOffset" : 12, "componentType" : 5126, "count" : 180, "type" : "VEC3", "max" : [0.9668022394180298, 0.988948404788971, 0.9792992472648621], "min" : [-0.9802688956260681, -0.9949832558631897, -0.9445275664329529], "name" : "NORMAL"}], "asset" : {"generator" : "Aspose.3D 23.7.0", "version" : "2.0"}, "buffers" : [{"uri" : "data:application/octet-stream;base64,", "byteLength" : 116708}], "bufferViews" : [{"buffer" : 0, "byteOffset" : 0, "byteLength" : 8976, "target" : 34963}, {"buffer" : 0, "byteOffset" : 8980, "byteLength" : 6624, "byteStride" : 24, "target" : 34962}, {"buffer" : 0, "byteOffset" : 15608, "byteLength" : 55296, "byteStride" : 24, "target" : 34962}, {"buffer" : 0, "byteOffset" : 70908, "byteLength" : 41472, "byteStride" : 24, "target" : 34962}, {"buffer" : 0, "byteOffset" : 112384, "byteLength" : 4320, "byteStride" : 24, "target" : 34962}], "materials" : [{"name" : "Wood", "pbrMetallicRoughness" : {"baseColorFactor" : [0.15292617678642273, 0.07036010175943375, 0.05951124429702759, 1], "metallicFactor" : 0, "roughnessFactor" : 0}, "emissiveFactor" : [0.15292617678642273, 0.07036010175943375, 0.05951124429702759], "alphaMode" : "OPAQUE", "doubleSided" : false}, {"name" : "Green", "pbrMetallicRoughness" : {"baseColorFactor" : [0.08744194358587265, 0.15232062339782715, 0.05986013635993004, 1], "metallicFactor" : 0, "roughnessFactor" : 0}, "emissiveFactor" : [0.08744194358587265, 0.15232062339782715, 0.05986013635993004], "alphaMode" : "OPAQUE", "doubleSided" : false}, {"name" : "DarkGreen", "pbrMetallicRoughness" : {"baseColorFactor" : [0.05316007137298584, 0.09083576500415802, 0.03697298839688301, 1], "metallicFactor" : 0, "roughnessFactor" : 0}, "emissiveFactor" : [0.05316007137298584, 0.09083576500415802, 0.03697298839688301], "alphaMode" : "OPAQUE", "doubleSided" : false}, {"name" : "Coconuts", "pbrMetallicRoughness" : {"baseColorFactor" : [0.25294047594070435, 0.1137961894273758, 0.09568443894386292, 1], "metallicFactor" : 0, "roughnessFactor" : 0}, "emissiveFactor" : [0.25294047594070435, 0.1137961894273758, 0.09568443894386292], "alphaMode" : "OPAQUE", "doubleSided" : false}], "meshes" : [{"primitives" : [{"attributes" : {"POSITION" : 1, "NORMAL" : 2}, "indices" : 0, "material" : 0, "mode" : 4}, {"attributes" : {"POSITION" : 4, "NORMAL" : 5}, "indices" : 3, "material" : 1, "mode" : 4}, {"attributes" : {"POSITION" : 7, "NORMAL" : 8}, "indices" : 6, "material" : 2, "mode" : 4}, {"attributes" : {"POSITION" : 10, "NORMAL" : 11}, "indices" : 9, "material" : 3, "mode" : 4}], "name" : "Cylinder.037"}], "nodes" : [{"matrix" : [100, 0, 0, 0, 0, -1.6292067955264296E-05, -99.99999999999866, 0, 0, 99.99999999999866, -1.6292067955264296E-05, 0, 0, 0, 0, 1], "mesh" : 0, "name" : "PalmTree_3"}], "scene" : 0, "scenes" : [{"nodes" : [0]}]}