{"accessors" : [{"bufferView" : 0, "byteOffset" : 0, "componentType" : 5123, "count" : 168, "type" : "SCALAR", "max" : [167], "min" : [0]}, {"bufferView" : 1, "byteOffset" : 0, "componentType" : 5126, "count" : 168, "type" : "VEC3", "max" : [0.1536576896905899, 0.23432603478431702, 2.4720728397369385], "min" : [-0.2607836127281189, -0.19699591398239136, -0.007846330292522907], "name" : "POSITION"}, {"bufferView" : 1, "byteOffset" : 12, "componentType" : 5126, "count" : 168, "type" : "VEC3", "max" : [0.9831808805465698, 0.9423337578773499, 0.998907744884491], "min" : [-0.9827732443809509, -0.9383395910263062, -0.9999952912330627], "name" : "NORMAL"}, {"bufferView" : 0, "byteOffset" : 336, "componentType" : 5123, "count" : 4560, "type" : "SCALAR", "max" : [4559], "min" : [0]}, {"bufferView" : 2, "byteOffset" : 0, "componentType" : 5126, "count" : 4560, "type" : "VEC3", "max" : [0.7855910658836365, 0.7053425312042236, 2.687030076980591], "min" : [-0.6870535612106323, -0.6361024975776672, 1.0982773303985596], "name" : "POSITION"}, {"bufferView" : 2, "byteOffset" : 12, "componentType" : 5126, "count" : 4560, "type" : "VEC3", "max" : [0.9983685612678528, 0.9906525015830994, 0.9963377714157104], "min" : [-0.9967891573905945, -0.9900985360145569, -0.9969516396522522], "name" : "NORMAL"}], "asset" : {"generator" : "Aspose.3D 23.7.0", "version" : "2.0"}, "buffers" : [{"uri" : "data:application/octet-stream;base64,", "byteLength" : 122940}], "bufferViews" : [{"buffer" : 0, "byteOffset" : 0, "byteLength" : 9456, "target" : 34963}, {"buffer" : 0, "byteOffset" : 9460, "byteLength" : 4032, "byteStride" : 24, "target" : 34962}, {"buffer" : 0, "byteOffset" : 13496, "byteLength" : 109440, "byteStride" : 24, "target" : 34962}], "materials" : [{"name" : "Wood", "pbrMetallicRoughness" : {"baseColorFactor" : [0.15292617678642273, 0.07036010175943375, 0.05951124429702759, 1], "metallicFactor" : 0, "roughnessFactor" : 0}, "emissiveFactor" : [0.15292617678642273, 0.07036010175943375, 0.05951124429702759], "alphaMode" : "OPAQUE", "doubleSided" : false}, {"name" : "Green", "pbrMetallicRoughness" : {"baseColorFactor" : [0.08744194358587265, 0.15232062339782715, 0.05986013635993004, 1], "metallicFactor" : 0, "roughnessFactor" : 0}, "emissiveFactor" : [0.08744194358587265, 0.15232062339782715, 0.05986013635993004], "alphaMode" : "OPAQUE", "doubleSided" : false}], "meshes" : [{"primitives" : [{"attributes" : {"POSITION" : 1, "NORMAL" : 2}, "indices" : 0, "material" : 0, "mode" : 4}, {"attributes" : {"POSITION" : 4, "NORMAL" : 5}, "indices" : 3, "material" : 1, "mode" : 4}], "name" : "Cylinder.028"}], "nodes" : [{"matrix" : [100, 0, 0, 0, 0, -1.6292067955264296E-05, -99.99999999999866, 0, 0, 99.99999999999866, -1.6292067955264296E-05, 0, 0, 0, 0, 1], "mesh" : 0, "name" : "PineTree_5"}], "scene" : 0, "scenes" : [{"nodes" : [0]}]}