{"accessors" : [{"bufferView" : 0, "byteOffset" : 0, "componentType" : 5123, "count" : 1488, "type" : "SCALAR", "max" : [1487], "min" : [0]}, {"bufferView" : 1, "byteOffset" : 0, "componentType" : 5126, "count" : 1488, "type" : "VEC3", "max" : [0.3500326871871948, 0.7274153232574463, 2.0273854732513428], "min" : [-0.21691934764385223, -1.2269082069396973, -0.007934818975627422], "name" : "POSITION"}, {"bufferView" : 1, "byteOffset" : 12, "componentType" : 5126, "count" : 1488, "type" : "VEC3", "max" : [0.9987202882766724, 0.9996915459632874, 0.9750264883041382], "min" : [-0.9993618130683899, -0.9856777191162109, -0.9995081424713135], "name" : "NORMAL"}, {"bufferView" : 0, "byteOffset" : 2976, "componentType" : 5123, "count" : 2712, "type" : "SCALAR", "max" : [2711], "min" : [0]}, {"bufferView" : 2, "byteOffset" : 0, "componentType" : 5126, "count" : 2712, "type" : "VEC3", "max" : [0.5807241201400757, 0.9902098774909973, 2.2351925373077393], "min" : [-0.42921462655067444, -1.5000215768814087, 0.6645405888557434], "name" : "POSITION"}, {"bufferView" : 2, "byteOffset" : 12, "componentType" : 5126, "count" : 2712, "type" : "VEC3", "max" : [0.9984678030014038, 0.9990231990814209, 0.6513239145278931], "min" : [-0.9985975027084351, -0.9991160035133362, -0.9999272227287292], "name" : "NORMAL"}, {"bufferView" : 0, "byteOffset" : 8400, "componentType" : 5123, "count" : 960, "type" : "SCALAR", "max" : [959], "min" : [0]}, {"bufferView" : 3, "byteOffset" : 0, "componentType" : 5126, "count" : 960, "type" : "VEC3", "max" : [0.4926550090312958, 0.9816948771476746, 2.455307722091675], "min" : [-0.34114548563957214, -1.4915063381195068, 1.3437856435775757], "name" : "POSITION"}, {"bufferView" : 3, "byteOffset" : 12, "componentType" : 5126, "count" : 960, "type" : "VEC3", "max" : [0.9857894778251648, 0.9903243780136108, 0.98946613073349], "min" : [-0.9856137037277222, -0.987774670124054, -0.4293074905872345], "name" : "NORMAL"}], "asset" : {"generator" : "Aspose.3D 23.7.0", "version" : "2.0"}, "buffers" : [{"uri" : "data:application/octet-stream;base64,", "byteLength" : 134176}], "bufferViews" : [{"buffer" : 0, "byteOffset" : 0, "byteLength" : 10320, "target" : 34963}, {"buffer" : 0, "byteOffset" : 10324, "byteLength" : 35712, "byteStride" : 24, "target" : 34962}, {"buffer" : 0, "byteOffset" : 46040, "byteLength" : 65088, "byteStride" : 24, "target" : 34962}, {"buffer" : 0, "byteOffset" : 111132, "byteLength" : 23040, "byteStride" : 24, "target" : 34962}], "materials" : [{"name" : "Wood", "pbrMetallicRoughness" : {"baseColorFactor" : [0.15292617678642273, 0.07036010175943375, 0.05951124429702759, 1], "metallicFactor" : 0, "roughnessFactor" : 0}, "emissiveFactor" : [0.15292617678642273, 0.07036010175943375, 0.05951124429702759], "alphaMode" : "OPAQUE", "doubleSided" : false}, {"name" : "DarkGreen", "pbrMetallicRoughness" : {"baseColorFactor" : [0.05316007137298584, 0.09083576500415802, 0.03697298839688301, 1], "metallicFactor" : 0, "roughnessFactor" : 0}, "emissiveFactor" : [0.05316007137298584, 0.09083576500415802, 0.03697298839688301], "alphaMode" : "OPAQUE", "doubleSided" : false}, {"name" : "Snow", "pbrMetallicRoughness" : {"baseColorFactor" : [0.5028864741325378, 0.4507858455181122, 0.5271152257919312, 1], "metallicFactor" : 0, "roughnessFactor" : 0}, "emissiveFactor" : [0.5028864741325378, 0.4507858455181122, 0.5271152257919312], "alphaMode" : "OPAQUE", "doubleSided" : false}], "meshes" : [{"primitives" : [{"attributes" : {"POSITION" : 1, "NORMAL" : 2}, "indices" : 0, "material" : 0, "mode" : 4}, {"attributes" : {"POSITION" : 4, "NORMAL" : 5}, "indices" : 3, "material" : 1, "mode" : 4}, {"attributes" : {"POSITION" : 7, "NORMAL" : 8}, "indices" : 6, "material" : 2, "mode" : 4}], "name" : "Cube.141"}], "nodes" : [{"matrix" : [100, 0, 0, 0, 0, -1.6292067955264296E-05, -99.99999999999866, 0, 0, 99.99999999999866, -1.6292067955264296E-05, 0, 0, 0, 0, 1], "mesh" : 0, "name" : "Willow_Snow_5"}], "scene" : 0, "scenes" : [{"nodes" : [0]}]}